<svg width="24" height="24" viewBox="0 0 24 24" fill="none" xmlns="http://www.w3.org/2000/svg">
<path d="M12 4C7.60158 4 4 7.60158 4 12C4 16.3984 7.60158 20 12 20C16.3984 20 20 16.3984 20 12C20 7.60158 16.3984 4 12 4ZM12 4.69565C16.019 4.69565 19.3043 7.98103 19.3043 12C19.3043 16.019 16.019 19.3043 12 19.3043C7.98103 19.3043 4.69565 16.019 4.69565 12C4.69565 7.98103 7.98103 4.69565 12 4.69565ZM12 5.73913C8.54634 5.73913 5.73913 8.54634 5.73913 12C5.73913 15.4537 8.54634 18.2609 12 18.2609C15.4537 18.2609 18.2609 15.4537 18.2609 12C18.2609 8.54634 15.4537 5.73913 12 5.73913ZM12 6.43478C14.5938 6.43478 16.7621 8.20409 17.3818 10.6019C16.1816 10.5661 15.4859 10.195 14.7731 9.78533C14.0236 9.35456 13.2357 8.86957 12 8.86957C10.7643 8.86957 10.013 9.3584 9.28804 9.78736C8.59648 10.1966 7.90397 10.5682 6.61821 10.6019C7.23794 8.20409 9.40624 6.43478 12 6.43478ZM12 9.56522C13.06 9.56522 13.6631 9.94979 14.4266 10.3886C15.1814 10.8223 16.0826 11.2915 17.517 11.3023C17.5456 11.5313 17.5652 11.7632 17.5652 12C17.5652 12.3571 17.5287 12.7053 17.4647 13.0435H15.1304C13.9938 13.0435 13.0435 13.9938 13.0435 15.1304V17.4647C12.7053 17.5287 12.3571 17.5652 12 17.5652C11.6429 17.5652 11.2947 17.5287 10.9565 17.4647V15.1304C10.9565 13.9826 10.0542 13.0435 8.86957 13.0435H6.53533C6.47133 12.7053 6.43478 12.3571 6.43478 12C6.43478 11.7632 6.45443 11.5313 6.48302 11.3023C7.99901 11.2921 8.90619 10.8223 9.64266 10.3865C10.3873 9.94595 10.94 9.56522 12 9.56522ZM12 10.2609C11.0436 10.2609 10.2609 11.0436 10.2609 12C10.2609 12.9564 11.0436 13.7391 12 13.7391C12.9564 13.7391 13.7391 12.9564 13.7391 12C13.7391 11.0436 12.9564 10.2609 12 10.2609ZM12 10.9565C12.5804 10.9565 13.0435 11.4196 13.0435 12C13.0435 12.5804 12.5804 13.0435 12 13.0435C11.4196 13.0435 10.9565 12.5804 10.9565 12C10.9565 11.4196 11.4196 10.9565 12 10.9565ZM6.71535 13.7391H8.86957C9.70235 13.7391 10.2609 14.3304 10.2609 15.1304V17.2846C8.5856 16.7349 7.26513 15.4144 6.71535 13.7391ZM15.1304 13.7391H17.2846C16.7349 15.4144 15.4144 16.7349 13.7391 17.2846V15.1304C13.7391 14.3888 14.3888 13.7391 15.1304 13.7391Z" fill="#555770"/>
</svg>
