<svg width="36" height="36" viewBox="0 0 36 36" fill="none" xmlns="http://www.w3.org/2000/svg">
<rect width="36" height="36" rx="8" fill="#E4E4EB"/>
<path d="M15.0286 21.366L14.4777 24.0695C14.4603 24.1573 14.4515 24.2627 14.4515 24.3417C14.4515 24.763 14.7226 25 15.1423 25C15.5795 25 15.8418 24.7718 15.938 24.3066L16.5238 21.366H19.2258L18.6836 24.0695C18.6661 24.1573 18.6486 24.2627 18.6486 24.3417C18.6486 24.763 18.9197 25 19.3394 25C19.7766 25 20.039 24.7542 20.1351 24.289L20.7297 21.366H22.3561C22.8545 21.366 23.1781 21.0324 23.1781 20.5409C23.1781 20.1546 22.9157 19.8825 22.5223 19.8825H21.0183L21.6129 16.977H23.1693C23.6677 16.977 24 16.6435 24 16.1607C24 15.7745 23.7377 15.5024 23.3355 15.5024H21.9189L22.4348 12.9305C22.4611 12.8427 22.4698 12.7373 22.4698 12.6583C22.4698 12.237 22.1987 12 21.779 12C21.3418 12 21.0795 12.2458 20.9833 12.711L20.4062 15.5024H17.7218L18.2377 12.9305C18.2552 12.8427 18.2727 12.7373 18.2727 12.6583C18.2727 12.237 18.0016 12 17.5819 12C17.1359 12 16.8824 12.2458 16.7862 12.7022L16.2091 15.5024H14.6264C14.1367 15.5024 13.8045 15.8359 13.8045 16.3187C13.8045 16.7137 14.0668 16.9858 14.469 16.9858H15.9118L15.3347 19.8825H13.8307C13.3323 19.8825 13 20.2161 13 20.6989C13 21.0939 13.2711 21.366 13.6645 21.366H15.0286ZM16.7599 19.9527L17.372 16.9156H20.1789L19.558 19.9527H16.7599Z" fill="#555770"/>
</svg>
