<svg width="36" height="36" viewBox="0 0 36 36" fill="none" xmlns="http://www.w3.org/2000/svg">
<rect width="36" height="36" rx="8" fill="#E4E4EB"/>
<path d="M17.9961 26C22.3809 26 26 22.3809 26 18.0039C26 13.6191 22.3731 10 17.9884 10C13.6114 10 10 13.6191 10 18.0039C10 22.3809 13.6191 26 17.9961 26ZM17.9961 24.3992C14.4466 24.3992 11.6085 21.5457 11.6085 18.0039C11.6085 14.4543 14.4466 11.6008 17.9884 11.6008C21.5379 11.6008 24.3915 14.4543 24.3992 18.0039C24.407 21.5457 21.5457 24.3992 17.9961 24.3992ZM17.9884 14.4157C18.4215 14.4157 18.7849 14.0522 18.7849 13.6191C18.7849 13.1783 18.4215 12.8226 17.9884 12.8226C17.5476 12.8226 17.1996 13.1783 17.1996 13.6191C17.1996 14.0522 17.5553 14.4157 17.9884 14.4157ZM14.9338 15.7612C15.3746 15.7612 15.7303 15.3978 15.7303 14.9647C15.7303 14.5317 15.3746 14.1682 14.9338 14.1682C14.5007 14.1682 14.1373 14.5317 14.1373 14.9647C14.1373 15.3978 14.5007 15.7612 14.9338 15.7612ZM21.0507 15.7612C21.4838 15.7612 21.8473 15.3978 21.8473 14.9647C21.8473 14.5317 21.4838 14.1682 21.0507 14.1682C20.61 14.1682 20.2542 14.5317 20.2542 14.9647C20.2542 15.3978 20.61 15.7612 21.0507 15.7612ZM17.9961 18.8081C18.4369 18.8081 18.8081 18.4369 18.8081 17.9961C18.8081 17.9497 18.8081 17.9111 18.8004 17.8724L19.883 16.4959C19.9913 16.349 20.0145 16.1634 19.883 16.0396C19.767 15.9391 19.5892 15.9314 19.45 16.0396L18.1121 17.1919C18.0735 17.1841 18.0348 17.1764 17.9961 17.1764C17.5476 17.1764 17.1841 17.5399 17.1841 17.9961C17.1841 18.4369 17.5476 18.8081 17.9961 18.8081ZM13.6501 18.7927C14.0909 18.7927 14.4466 18.4292 14.4466 17.9961C14.4466 17.5553 14.0909 17.1996 13.6501 17.1996C13.217 17.1996 12.8536 17.5553 12.8536 17.9961C12.8536 18.4292 13.217 18.7927 13.6501 18.7927ZM22.3345 18.7927C22.7675 18.7927 23.131 18.4292 23.131 17.9961C23.131 17.5553 22.7675 17.1996 22.3345 17.1996C21.8937 17.1996 21.5379 17.5553 21.5379 17.9961C21.5379 18.4292 21.8937 18.7927 22.3345 18.7927ZM14.9493 21.8241C15.39 21.8241 15.7458 21.4606 15.7458 21.0275C15.7458 20.5868 15.39 20.231 14.9493 20.231C14.5162 20.231 14.1527 20.5868 14.1527 21.0275C14.1527 21.4606 14.5162 21.8241 14.9493 21.8241ZM21.0353 21.8241C21.4683 21.8241 21.8318 21.4606 21.8318 21.0275C21.8318 20.5868 21.4683 20.231 21.0353 20.231C20.5945 20.231 20.2388 20.5868 20.2388 21.0275C20.2388 21.4606 20.5945 21.8241 21.0353 21.8241Z" fill="#555770"/>
</svg>
